<svg width="114" height="114" viewBox="0 0 114 114" fill="none" xmlns="http://www.w3.org/2000/svg">
<path d="M16.2858 16.2857C16.2858 7.29137 23.5771 0 32.5715 0C41.5659 0 48.8572 7.29137 48.8572 16.2857C48.8572 21.5359 46.3728 26.2059 42.5156 29.184C42.3995 29.2696 42.2842 29.3563 42.1697 29.4438C39.4782 31.4105 36.1604 32.5715 32.5715 32.5715C23.5771 32.5715 16.2858 25.2801 16.2858 16.2857Z" fill="#F2AB4C"/>
<path d="M71.4846 29.184C71.6006 29.2696 71.7159 29.3563 71.8304 29.4439C74.5219 31.4106 77.8401 32.5715 81.4287 32.5715C90.4233 32.5715 97.7144 25.2801 97.7144 16.2857C97.7144 7.29137 90.4233 0 81.4287 0C72.4343 0 65.1429 7.29137 65.1429 16.2857C65.1429 21.5359 67.6273 26.2059 71.4846 29.184Z" fill="#F2AB4C"/>
<path d="M42.8931 40.7144C45.7089 35.8466 50.9721 32.5715 57.0001 32.5715C63.0281 32.5715 68.2912 35.8466 71.1071 40.7144C72.4928 43.1098 73.2858 45.8909 73.2858 48.8573C73.2858 57.8516 65.9945 65.143 57.0001 65.143C48.0057 65.143 40.7144 57.8516 40.7144 48.8573C40.7144 45.8909 41.5074 43.1098 42.8931 40.7144Z" fill="#F2AB4C"/>
<path d="M12.2141 40.7144H33.9615C33.0613 43.2613 32.5715 46.002 32.5715 48.8572C32.5715 55.1138 34.9235 60.821 38.7917 65.143H36.6427C27.8066 65.143 20.2855 70.7729 17.4703 78.6406C14.702 77.5144 12.1409 76.043 9.87038 74.2206C3.73733 69.298 0 62.0167 0 52.9287C0 46.1832 5.46842 40.7144 12.2141 40.7144V40.7144Z" fill="#F2AB4C"/>
<path d="M77.3572 65.143C86.193 65.143 93.7145 70.7727 96.5295 78.6406C99.2981 77.5144 101.859 76.043 104.13 74.2206C110.262 69.298 114 62.0167 114 52.9287C114 46.1829 108.531 40.7144 101.786 40.7144H80.0386C80.9384 43.2613 81.4286 46.002 81.4286 48.8572C81.4286 55.1138 79.0761 60.821 75.2083 65.143H77.3572Z" fill="#F2AB4C"/>
<path d="M88.6522 80.8422C89.2442 82.2778 89.5715 83.851 89.5715 85.4999C89.5715 94.5882 85.8339 101.87 79.7016 106.792C73.6652 111.637 65.5751 114 57.0001 114C48.425 114 40.335 111.637 34.299 106.792C28.1659 101.87 24.4286 94.5882 24.4286 85.4999C24.4286 83.851 24.7555 82.2778 25.3481 80.8422C27.1791 76.4068 31.5464 73.2856 36.6427 73.2856H77.3572C82.4538 73.2856 86.8209 76.4068 88.6522 80.8422Z" fill="#F2AB4C"/>
</svg>
