<svg width="81" height="99" viewBox="0 0 81 99" fill="none" xmlns="http://www.w3.org/2000/svg">
<path d="M5.588 24.8853L39.7369 5.5992L40.9786 3.7328L51.5338 9.95414L75.1275 21.1525L76.3693 33.5952L75.1275 57.8584L68.2978 72.7896L58.3635 87.0987L40.9786 93.3201L35.3907 90.8315L18.0058 79.6331L8.69244 67.8126L3.10444 47.9043L5.588 24.8853Z" fill="#F2AB4C"/>
<path fill-rule="evenodd" clip-rule="evenodd" d="M40.9177 7.09681C40.5695 6.90243 40.146 6.90243 39.7978 7.09681L7.51157 25.118C7.1455 25.3223 6.91847 25.71 6.91847 26.1307V47.6264C6.91847 63.1934 15.3186 77.5368 28.863 85.0968L39.7978 91.2003C40.146 91.3947 40.5695 91.3947 40.9177 91.2003L51.8526 85.0968C65.3969 77.5368 73.7971 63.1934 73.7971 47.6264V26.1307C73.7971 25.71 73.57 25.3223 73.204 25.118L40.9177 7.09681ZM36.4379 1.02052C38.8757 -0.340177 41.8399 -0.340173 44.2777 1.02053L76.5639 19.0417C79.1263 20.472 80.7155 23.1856 80.7155 26.1307V47.6264C80.7155 65.7178 70.9532 82.3871 55.2125 91.1731L44.2777 97.2766C41.8399 98.6373 38.8757 98.6373 36.4379 97.2766L25.503 91.1731C9.76236 82.3871 0 65.7178 0 47.6264V26.1307C0 23.1856 1.58923 20.472 4.15166 19.0417L36.4379 1.02052Z" fill="#F2AB4C"/>
<path fill-rule="evenodd" clip-rule="evenodd" d="M58.8839 37.0157C60.2883 38.4201 60.2883 40.6971 58.8839 42.1016L39.704 61.2815C38.2996 62.6859 36.0225 62.6859 34.6181 61.2815L25.0282 51.6915C23.6237 50.2871 23.6237 48.0101 25.0282 46.6057C26.4326 45.2013 28.7096 45.2013 30.114 46.6057L37.1611 53.6527L53.7981 37.0157C55.2025 35.6113 57.4795 35.6113 58.8839 37.0157Z" fill="#1B4573"/>
</svg>
